<?xml version="1.0" encoding="utf-8"?>
<!-- Generator: Adobe Illustrator 24.2.3, SVG Export Plug-In . SVG Version: 6.00 Build 0)  -->
<svg version="1.1" id="Layer_1" xmlns="http://www.w3.org/2000/svg" xmlns:xlink="http://www.w3.org/1999/xlink" x="0px" y="0px"
	 viewBox="0 0 37 32" style="enable-background:new 0 0 37 32;" xml:space="preserve">
<style type="text/css">
	.st0{fill-rule:evenodd;clip-rule:evenodd;fill:#0057B8;}
	.st1{fill-rule:evenodd;clip-rule:evenodd;fill:#91DC00;}
	.st2{fill-rule:evenodd;clip-rule:evenodd;fill:#FFFFFF;}
	.st3{fill-rule:evenodd;clip-rule:evenodd;fill:none;}
</style>
<path id="Color-Fill" class="st0" d="M16,2.7C8.6,2.7,2.7,8.6,2.7,16s6,13.3,13.3,13.3s13.3-6,13.3-13.3S23.4,2.7,16,2.7z M16,6.7
	c2.2,0,4,1.8,4,4s-1.8,4-4,4s-4-1.8-4-4S13.8,6.7,16,6.7z M16,25.6c-3.3,0-6.3-1.7-8-4.3c0-2.7,5.3-4.1,8-4.1c2.7,0,8,1.5,8,4.1
	C22.3,23.9,19.3,25.6,16,25.6z"/>
<path id="Circle" class="st1" d="M29,15.8c-4,0-7.2,3.2-7.2,7.2s3.2,7.2,7.2,7.2s7.2-3.2,7.2-7.2c0-1.9-0.8-3.7-2.1-5.1
	S30.9,15.8,29,15.8z"/>
<polygon id="Check" class="st2" points="27.6,26.6 24,23 25,22 27.6,24.6 33,19.1 34,20.1 "/>
<rect class="st3" width="37" height="32"/>
</svg>
