<?xml version="1.0" encoding="UTF-8"?>
<svg width="69px" height="22px" viewBox="0 0 69 22" version="1.1" xmlns="http://www.w3.org/2000/svg" xmlns:xlink="http://www.w3.org/1999/xlink">
    <title>ATT-TV-logo-fullcolor</title>
    <g id="Compliance---DTV-only-(no-comment-for-compliance)" stroke="none" stroke-width="1" fill="none" fill-rule="evenodd">
        <g id="dtv-6" transform="translate(-173.000000, -451.000000)" fill-rule="nonzero">
            <g id="Group-24-Copy-2" transform="translate(133.000000, 323.000000)">
                <g id="Elements/Interactive/Buttons/Width/Standard-Copy-4" transform="translate(23.000000, 119.000000)">
                    <g id="ATT-TV-logo-fullcolor" transform="translate(17.000000, 9.000000)">
                        <path d="M46.7014737,4.91151316 L46.7014737,0.140328947 L41.2286447,1.65588158 L41.2286447,15.6326447 C41.2286447,19.0847368 43.6423026,21.2177368 47.0663289,21.2177368 L50.3500263,21.2177368 L52.0059079,16.8114079 L48.5818816,16.8114079 C46.7014737,16.8114079 46.6734079,16.0536316 46.6734079,14.4538816 L46.6734079,9.54236842 L52.8198158,9.54236842 L57.1980789,21.2458026 L62.6989737,21.2458026 L68.8734474,4.93957895 L62.9796316,4.93957895 L60.0888553,14.2854868 L57.2261447,4.93957895 L46.7014737,4.93957895 L46.7014737,4.91151316 Z" id="Path" fill="#009FDB"></path>
                        <g id="Group" transform="translate(0.000000, 4.490526)" fill="#000000">
                            <path d="M4.60278947,0.420986842 L7.29710526,0.420986842 L11.7315,12.3489474 L8.84072368,12.3489474 L8.08294737,9.99142105 L3.76081579,9.99142105 L3.00303947,12.3489474 L0.140328947,12.3489474 L4.60278947,0.420986842 Z M4.46246053,7.74615789 L7.35323684,7.74615789 L5.92188158,3.22756579 L4.46246053,7.74615789 Z" id="Shape"></path>
                            <polygon id="Path" points="13.2751184 2.80657895 9.73882895 2.80657895 9.73882895 0.420986842 19.5057237 0.420986842 19.5057237 2.80657895 15.9413684 2.80657895 15.9413684 12.3489474 13.2751184 12.3489474"></polygon>
                            <path d="M23.4068684,12.5454079 C22.2281053,12.5454079 21.3019342,12.2366842 20.5722237,11.6473026 C19.8425132,11.0579211 19.4776579,10.2720789 19.4776579,9.28977632 C19.4776579,8.61619737 19.7021842,7.97068421 20.1231711,7.40936842 C20.5441579,6.84805263 21.1616053,6.34286842 21.9755132,5.92188158 C21.4983947,5.38863158 21.1616053,4.91151316 20.9651447,4.49052632 C20.7686842,4.06953947 20.6564211,3.64855263 20.6564211,3.1995 C20.6564211,2.61011842 20.79675,2.07686842 21.1054737,1.62781579 C21.4141974,1.17876316 21.8351842,0.813907895 22.3684342,0.589381579 C22.9016842,0.336789474 23.4910658,0.224526316 24.1646447,0.224526316 C25.2311447,0.224526316 26.0731184,0.477118421 26.7186316,0.982302632 C27.3360789,1.48748684 27.6728684,2.16106579 27.6728684,3.03110526 C27.6728684,4.20986842 26.8308947,5.22023684 25.1469474,6.11834211 L26.9150921,7.99875 C26.9992895,7.85842105 27.0834868,7.71809211 27.1676842,7.57776316 C27.2518816,7.43743421 27.3360789,7.29710526 27.4202763,7.15677632 L28.0377237,5.97801316 L30.39525,5.97801316 L29.32875,7.91455263 C29.0200263,8.47586842 28.7113026,9.00911842 28.4025789,9.45817105 L31.1530263,12.3770132 L28.1499868,12.3770132 L26.9712237,11.1140526 C26.4941053,11.6192368 25.9608553,11.9840921 25.3995395,12.2086184 C24.8382237,12.4331447 24.1646447,12.5454079 23.4068684,12.5454079 Z M23.7436579,10.5527368 C24.4453026,10.5527368 25.06275,10.2720789 25.5398684,9.71076316 L23.2384737,7.24097368 C22.8174868,7.54969737 22.5087632,7.83035526 22.3123026,8.11101316 C22.1158421,8.39167105 22.0316447,8.70039474 22.0316447,9.03718421 C22.0316447,9.48623684 22.2000395,9.85109211 22.5087632,10.13175 C22.8174868,10.4124079 23.2384737,10.5527368 23.7436579,10.5527368 Z M23.0139474,3.14336842 C23.0139474,3.39596053 23.0700789,3.64855263 23.2104079,3.90114474 C23.3507368,4.12567105 23.6033289,4.46246053 23.9681842,4.88344737 C24.4453026,4.57472368 24.8101579,4.29406579 25.0346842,4.01340789 C25.2592105,3.73275 25.3714737,3.45209211 25.3714737,3.17143421 C25.3714737,2.86271053 25.2592105,2.61011842 25.06275,2.41365789 C24.8662895,2.21719737 24.5856316,2.10493421 24.2488421,2.10493421 C23.8839868,2.10493421 23.6033289,2.21719737 23.3507368,2.41365789 C23.1262105,2.58205263 23.0139474,2.83464474 23.0139474,3.14336842 Z" id="Shape"></path>
                            <polygon id="Path" points="32.5563158 2.80657895 29.0200263 2.80657895 29.0200263 0.420986842 38.7869211 0.420986842 38.7869211 2.80657895 35.2506316 2.80657895 35.2506316 12.3489474 32.5563158 12.3489474"></polygon>
                        </g>
                    </g>
                </g>
            </g>
        </g>
    </g>
</svg>