<?xml version="1.0" encoding="UTF-8"?>
<svg width="68px" height="23px" viewBox="0 0 68 23" version="1.1" xmlns="http://www.w3.org/2000/svg" xmlns:xlink="http://www.w3.org/1999/xlink">
    <title>ATT-TV-logo-white</title>
    <g id="Compliance---ATTTV-only-(no-comment-for-compliance)" stroke="none" stroke-width="1" fill="none" fill-rule="evenodd">
        <g id="atttv-16" transform="translate(-171.000000, -604.000000)" fill="#FFFFFF" fill-rule="nonzero">
            <g id="Group-24-Copy-2" transform="translate(133.000000, 476.000000)">
                <g id="Standard-Button" transform="translate(21.000000, 119.000000)">
                    <g id="ATT-TV-logo-white" transform="translate(17.777778, 9.777778)">
                        <path d="M44.5117845,5.34412558 L44.5117845,0.740740741 L39.2592593,2.23007113 L39.2592593,15.7694383 C39.2592593,19.0865833 41.5488215,21.1851852 44.9158249,21.1851852 L48.0808081,21.1851852 L49.6969697,16.9202845 L46.3973064,16.9202845 C44.5791246,16.9202845 44.5791246,16.1756193 44.5791246,14.6185921 L44.5791246,9.81211675 L50.5050505,9.81211675 L54.7474747,21.1174883 L60,21.1174883 L65.9259259,5.34412558 L60.2693603,5.34412558 L57.5084175,14.3478048 L54.7474747,5.34412558 L44.5117845,5.34412558 Z" id="Path"></path>
                        <g id="Group" transform="translate(0.148148, 5.185185)">
                            <path d="M4.26666667,0.458479532 L6.8,0.458479532 L11.0666667,11.5929825 L8.33333333,11.5929825 L7.6,9.36608187 L3.46666667,9.36608187 L2.73333333,11.5929825 L0,11.5929825 L4.26666667,0.458479532 Z M4.13333333,7.33567251 L6.86666667,7.33567251 L5.53333333,3.07836257 L4.13333333,7.33567251 Z" id="Shape"></path>
                            <polygon id="Path" points="12.5333333 2.75087719 9.13333333 2.75087719 9.13333333 0.523976608 18.4666667 0.523976608 18.4666667 2.75087719 15.0666667 2.75087719 15.0666667 11.6584795 12.5333333 11.6584795"></polygon>
                            <path d="M22.2,11.8549708 C21.0666667,11.8549708 20.2,11.5929825 19.4666667,11.0035088 C18.8,10.4140351 18.4666667,9.69356725 18.4666667,8.77660819 C18.4666667,8.12163743 18.6666667,7.53216374 19.0666667,7.00818713 C19.4666667,6.48421053 20.0666667,6.02573099 20.8,5.63274854 C20.3333333,5.10877193 20,4.71578947 19.8666667,4.32280702 C19.6666667,3.92982456 19.6,3.53684211 19.6,3.07836257 C19.6,2.48888889 19.7333333,2.03040936 20.0666667,1.57192982 C20.3333333,1.17894737 20.7333333,0.851461988 21.2666667,0.589473684 C21.8,0.392982456 22.3333333,0.261988304 23,0.261988304 C24,0.261988304 24.8,0.523976608 25.4,0.98245614 C26,1.44093567 26.3333333,2.09590643 26.3333333,2.88187135 C26.3333333,3.99532164 25.5333333,4.9122807 23.9333333,5.76374269 L25.6,7.53216374 C25.6666667,7.40116959 25.8,7.27017544 25.8666667,7.13918129 C25.9333333,7.00818713 26,6.87719298 26.1333333,6.74619883 L26.7333333,5.63274854 L29,5.63274854 L28,7.46666667 C27.6666667,7.99064327 27.4,8.51461988 27.1333333,8.90760234 L29.7333333,11.6584795 L26.8666667,11.6584795 L25.5333333,10.4795322 C25.0666667,10.9380117 24.6,11.2654971 24,11.5274854 C23.5333333,11.7239766 22.8666667,11.8549708 22.2,11.8549708 Z M22.4666667,9.95555556 C23.1333333,9.95555556 23.7333333,9.69356725 24.2,9.16959064 L22,6.87719298 C21.6,7.13918129 21.2666667,7.40116959 21.1333333,7.66315789 C20.9333333,7.9251462 20.8666667,8.1871345 20.8666667,8.51461988 C20.8666667,8.90760234 21,9.3005848 21.3333333,9.5625731 C21.6,9.8245614 22,9.95555556 22.4666667,9.95555556 Z M21.8,3.0128655 C21.8,3.2748538 21.8666667,3.47134503 22,3.73333333 C22.1333333,3.92982456 22.4,4.25730994 22.7333333,4.6502924 C23.2,4.38830409 23.5333333,4.12631579 23.7333333,3.86432749 C23.9333333,3.60233918 24.0666667,3.34035088 24.0666667,3.07836257 C24.0666667,2.81637427 24,2.55438596 23.8,2.35789474 C23.6,2.16140351 23.3333333,2.09590643 23,2.09590643 C22.6666667,2.09590643 22.4,2.16140351 22.1333333,2.35789474 C21.8666667,2.48888889 21.8,2.75087719 21.8,3.0128655 Z" id="Shape"></path>
                            <polygon id="Path" points="30.8666667 2.75087719 27.4666667 2.75087719 27.4666667 0.523976608 36.8 0.523976608 36.8 2.75087719 33.4 2.75087719 33.4 11.6584795 30.8666667 11.6584795 30.8666667 2.75087719"></polygon>
                        </g>
                    </g>
                </g>
            </g>
        </g>
    </g>
</svg>