<?xml version="1.0" encoding="UTF-8"?>
<svg width="83px" height="25px" viewBox="0 0 83 25" version="1.1" xmlns="http://www.w3.org/2000/svg" xmlns:xlink="http://www.w3.org/1999/xlink">
    <title>DirecTV-logo-fullcolor</title>
    <g id="Compliance---ATTTV-only-(no-comment-for-compliance)" stroke="none" stroke-width="1" fill="none" fill-rule="evenodd">
        <g id="atttv-16" transform="translate(-279.000000, -603.000000)" fill-rule="nonzero">
            <g id="Group-24-Copy-2" transform="translate(133.000000, 476.000000)">
                <g id="Elements/Interactive/Buttons/Width/Standard-Copy-4" transform="translate(136.000000, 119.000000)">
                    <g id="DirecTV-logo-fullcolor" transform="translate(10.370370, 8.148148)">
                        <g id="Group" transform="translate(26.666667, 3.703704)" fill="#231F20">
                            <g transform="translate(0.000000, 11.851852)">
                                <path d="M2.96296296,4.07407407 L2.66666667,3.18518519 L0.962962963,3.18518519 L0.666666667,4.07407407 L0.222222222,4.07407407 L1.62962963,0.222222222 L2,0.222222222 L3.40740741,4.07407407 L2.96296296,4.07407407 Z M1.77777778,0.814814815 L1.03703704,2.88888889 L2.51851852,2.88888889 L1.77777778,0.814814815 Z" id="Shape"></path>
                                <path d="M5.25925926,4.14814815 C4.44444444,4.14814815 3.92592593,3.62962963 3.92592593,2.81481481 L3.92592593,0.222222222 L4.37037037,0.222222222 L4.37037037,2.81481481 C4.37037037,3.40740741 4.74074074,3.77777778 5.33333333,3.77777778 C5.92592593,3.77777778 6.2962963,3.40740741 6.2962963,2.81481481 L6.2962963,0.222222222 L6.74074074,0.222222222 L6.74074074,2.81481481 C6.59259259,3.62962963 6,4.14814815 5.25925926,4.14814815 Z" id="Path"></path>
                                <polygon id="Path" points="8.88888889 0.592592593 8.88888889 4.07407407 8.44444444 4.07407407 8.44444444 0.592592593 7.33333333 0.592592593 7.33333333 0.222222222 10 0.222222222 10 0.592592593"></polygon>
                                <polygon id="Path" points="13.037037 4.07407407 13.037037 2.2962963 11.1851852 2.2962963 11.1851852 4.07407407 10.7407407 4.07407407 10.7407407 0.222222222 11.1851852 0.222222222 11.1851852 1.92592593 13.037037 1.92592593 13.037037 0.222222222 13.4814815 0.222222222 13.4814815 4.07407407"></polygon>
                                <path d="M16.6666667,3.7037037 C16.3703704,4 16.0740741,4.07407407 15.7037037,4.07407407 C15.3333333,4.07407407 14.962963,3.92592593 14.7407407,3.7037037 C14.3703704,3.33333333 14.3703704,2.96296296 14.3703704,2.14814815 C14.3703704,1.33333333 14.3703704,0.962962963 14.7407407,0.592592593 C15.037037,0.296296296 15.3333333,0.222222222 15.7037037,0.222222222 C16.0740741,0.222222222 16.4444444,0.37037037 16.6666667,0.592592593 C17.037037,0.962962963 17.037037,1.33333333 17.037037,2.14814815 C17.037037,2.96296296 17.037037,3.33333333 16.6666667,3.7037037 Z M16.3703704,0.814814815 C16.2222222,0.666666667 15.9259259,0.518518519 15.7037037,0.518518519 C15.4814815,0.518518519 15.1851852,0.592592593 15.037037,0.814814815 C14.8148148,1.03703704 14.7407407,1.33333333 14.7407407,2.14814815 C14.7407407,2.96296296 14.7407407,3.18518519 15.037037,3.48148148 C15.1851852,3.62962963 15.4814815,3.77777778 15.7037037,3.77777778 C15.9259259,3.77777778 16.2222222,3.7037037 16.3703704,3.48148148 C16.5925926,3.25925926 16.6666667,2.96296296 16.6666667,2.14814815 C16.6666667,1.33333333 16.5925926,1.11111111 16.3703704,0.814814815 Z" id="Shape"></path>
                                <path d="M20.2222222,4.07407407 L19.3333333,2.37037037 L18.3703704,2.37037037 L18.3703704,4.07407407 L17.9259259,4.07407407 L17.9259259,0.222222222 L19.4074074,0.222222222 C20.0740741,0.222222222 20.5185185,0.592592593 20.5185185,1.33333333 C20.5185185,1.92592593 20.1481481,2.2962963 19.7037037,2.37037037 L20.5925926,4.14814815 L20.2222222,4.14814815 L20.2222222,4.07407407 Z M19.4074074,0.592592593 L18.3703704,0.592592593 L18.3703704,2 L19.4074074,2 C19.8518519,2 20.1481481,1.77777778 20.1481481,1.25925926 C20.2222222,0.814814815 19.8518519,0.592592593 19.4074074,0.592592593 Z" id="Shape"></path>
                                <polygon id="Path" points="21.4814815 4.07407407 21.4814815 0.222222222 21.9259259 0.222222222 21.9259259 4.07407407"></polygon>
                                <polygon id="Path" points="22.7407407 4.07407407 22.7407407 3.7037037 24.6666667 0.592592593 22.8148148 0.592592593 22.8148148 0.222222222 25.1111111 0.222222222 25.1111111 0.592592593 23.1851852 3.7037037 25.1111111 3.7037037 25.1111111 4.07407407"></polygon>
                                <polygon id="Path" points="26 4.07407407 26 0.222222222 28.3703704 0.222222222 28.3703704 0.592592593 26.3703704 0.592592593 26.3703704 1.92592593 28.0740741 1.92592593 28.0740741 2.2962963 26.3703704 2.2962963 26.3703704 3.7037037 28.3703704 3.7037037 28.3703704 4.07407407"></polygon>
                                <path d="M31.5555556,3.77777778 C31.3333333,4 30.962963,4.14814815 30.5925926,4.14814815 L29.2592593,4.14814815 L29.2592593,0.296296296 L30.5925926,0.296296296 C30.962963,0.296296296 31.3333333,0.444444444 31.5555556,0.666666667 C31.9259259,1.03703704 31.9259259,1.62962963 31.9259259,2.22222222 C31.9259259,2.66666667 31.9259259,3.33333333 31.5555556,3.77777778 Z M31.2592593,0.888888889 C31.037037,0.666666667 30.8148148,0.592592593 30.5185185,0.592592593 L29.6296296,0.592592593 L29.6296296,3.7037037 L30.4444444,3.7037037 C30.7407407,3.7037037 31.037037,3.62962963 31.1851852,3.40740741 C31.4814815,3.11111111 31.4074074,2.51851852 31.4074074,2.07407407 C31.4814815,1.62962963 31.4814815,1.18518519 31.2592593,0.888888889 Z" id="Shape"></path>
                                <path d="M36.5185185,3.77777778 C36.2962963,4 35.9259259,4.14814815 35.5555556,4.14814815 L34.2222222,4.14814815 L34.2222222,0.296296296 L35.5555556,0.296296296 C35.9259259,0.296296296 36.2962963,0.444444444 36.5185185,0.666666667 C36.8888889,1.03703704 36.8888889,1.62962963 36.8888889,2.22222222 C36.8888889,2.66666667 36.962963,3.33333333 36.5185185,3.77777778 Z M36.2222222,0.888888889 C36,0.666666667 35.7777778,0.592592593 35.4814815,0.592592593 L34.6666667,0.592592593 L34.6666667,3.7037037 L35.4814815,3.7037037 C35.7777778,3.7037037 36.0740741,3.62962963 36.2222222,3.40740741 C36.5185185,3.11111111 36.4444444,2.51851852 36.4444444,2.07407407 C36.5185185,1.62962963 36.5185185,1.18518519 36.2222222,0.888888889 Z" id="Shape"></path>
                                <polygon id="Path" points="37.8518519 4.07407407 37.8518519 0.222222222 40.2222222 0.222222222 40.2222222 0.592592593 38.2222222 0.592592593 38.2222222 1.92592593 39.9259259 1.92592593 39.9259259 2.2962963 38.2222222 2.2962963 38.2222222 3.7037037 40.2222222 3.7037037 40.2222222 4.07407407"></polygon>
                                <path d="M43.5555556,4.07407407 L43.2592593,3.18518519 L41.5555556,3.18518519 L41.2592593,4.07407407 L40.8148148,4.07407407 L42.2222222,0.222222222 L42.5925926,0.222222222 L44,4.07407407 L43.5555556,4.07407407 Z M42.4444444,0.814814815 L41.7037037,2.88888889 L43.1851852,2.88888889 L42.4444444,0.814814815 Z" id="Shape"></path>
                                <polygon id="Path" points="44.7407407 4.07407407 44.7407407 0.222222222 45.1851852 0.222222222 45.1851852 3.7037037 47.1851852 3.7037037 47.1851852 4.07407407"></polygon>
                                <polygon id="Path" points="47.8518519 4.07407407 47.8518519 0.222222222 50.2222222 0.222222222 50.2222222 0.592592593 48.2222222 0.592592593 48.2222222 1.92592593 49.9259259 1.92592593 49.9259259 2.2962963 48.2222222 2.2962963 48.2222222 3.7037037 50.2222222 3.7037037 50.2222222 4.07407407"></polygon>
                                <path d="M53.3333333,4.07407407 L52.4444444,2.37037037 L51.4814815,2.37037037 L51.4814815,4.07407407 L51.1111111,4.07407407 L51.1111111,0.222222222 L52.5925926,0.222222222 C53.2592593,0.222222222 53.7037037,0.592592593 53.7037037,1.33333333 C53.7037037,1.92592593 53.3333333,2.2962963 52.8888889,2.37037037 L53.7777778,4.14814815 L53.3333333,4.14814815 L53.3333333,4.07407407 Z M52.5185185,0.592592593 L51.4814815,0.592592593 L51.4814815,2 L52.5185185,2 C52.962963,2 53.2592593,1.77777778 53.2592593,1.25925926 C53.3333333,0.814814815 53.037037,0.592592593 52.5185185,0.592592593 Z" id="Shape"></path>
                            </g>
                            <g transform="translate(0.740741, 0.000000)">
                                <path d="M6.51851852,9.18518519 C5.85185185,9.85185185 4.88888889,10.1481481 3.85185185,10.1481481 L0.222222222,10.1481481 L0.222222222,0.148148148 L3.85185185,0.148148148 C4.88888889,0.148148148 5.85185185,0.444444444 6.51851852,1.11111111 C7.62962963,2.22222222 7.55555556,3.62962963 7.55555556,5.11111111 C7.55555556,6.59259259 7.62962963,8.07407407 6.51851852,9.18518519 M5.18518519,2.51851852 C4.81481481,2.14814815 4.37037037,1.92592593 3.7037037,1.92592593 L2.22222222,1.92592593 L2.22222222,8.44444444 L3.7037037,8.44444444 C4.37037037,8.44444444 4.81481481,8.22222222 5.18518519,7.85185185 C5.55555556,7.40740741 5.62962963,6.66666667 5.62962963,5.18518519 C5.55555556,3.62962963 5.55555556,2.96296296 5.18518519,2.51851852" id="Shape"></path>
                                <rect id="Rectangle" x="9.33333333" y="0.148148148" width="1.92592593" height="10"></rect>
                                <path d="M18.5925926,10.1481481 L16.6666667,6.14814815 L15.2592593,6.14814815 L15.2592593,10.1481481 L13.3333333,10.1481481 L13.3333333,0.148148148 L17.2592593,0.148148148 C19.2592593,0.148148148 20.5185185,1.55555556 20.5185185,3.18518519 C20.5185185,4.59259259 19.6296296,5.48148148 18.6666667,5.77777778 L20.8888889,10.0740741 L18.5925926,10.0740741 L18.5925926,10.1481481 Z M17.037037,1.92592593 L15.1851852,1.92592593 L15.1851852,4.59259259 L17.037037,4.59259259 C17.9259259,4.59259259 18.4444444,4.07407407 18.4444444,3.25925926 C18.5185185,2.44444444 17.9259259,1.92592593 17.037037,1.92592593" id="Shape"></path>
                                <polygon id="Path" points="22.0740741 10.1481481 22.0740741 0.148148148 28.6666667 0.148148148 28.6666667 1.92592593 24.0740741 1.92592593 24.0740741 4.22222222 28 4.22222222 28 6 24.0740741 6 24.0740741 8.44444444 28.6666667 8.44444444 28.6666667 10.1481481"></polygon>
                                <path d="M33.4814815,10.2222222 C32.4444444,10.2222222 31.4814815,9.85185185 30.8148148,9.11111111 C30.3703704,8.66666667 30.1481481,8.14814815 30,7.62962963 C29.8518519,7.03703704 29.8518519,6.22222222 29.8518519,5.11111111 C29.8518519,4 29.9259259,3.18518519 30,2.59259259 C30.1481481,2 30.3703704,1.55555556 30.8148148,1.11111111 C31.5555556,0.37037037 32.4444444,0 33.4814815,0 C35.4074074,0 36.8148148,1.11111111 37.1851852,3.18518519 L35.1851852,3.18518519 C34.962963,2.2962963 34.4444444,1.77777778 33.4814815,1.77777778 C32.962963,1.77777778 32.5185185,1.92592593 32.2222222,2.2962963 C31.8518519,2.74074074 31.7037037,3.18518519 31.7037037,5.11111111 C31.7037037,7.03703704 31.7777778,7.48148148 32.2222222,7.92592593 C32.5185185,8.2962963 32.962963,8.44444444 33.4814815,8.44444444 C34.4444444,8.44444444 34.962963,7.85185185 35.1851852,7.03703704 L37.1851852,7.03703704 C36.8148148,9.11111111 35.4074074,10.2222222 33.4814815,10.2222222" id="Path"></path>
                                <polygon id="Path" points="42.2222222 1.92592593 42.2222222 10.1481481 40.2962963 10.1481481 40.2962963 1.92592593 37.7037037 1.92592593 37.7037037 0.148148148 44.8888889 0.148148148 44.8888889 1.92592593"></polygon>
                                <polygon id="Path" points="50.5925926 10.1481481 49.1111111 10.1481481 45.8518519 0.148148148 47.8518519 0.148148148 49.8518519 6.66666667 51.8518519 0.148148148 53.9259259 0.148148148"></polygon>
                            </g>
                        </g>
                        <path d="M4.74074074,20.6666667 C6.66666667,22.1481481 9.03703704,23.037037 11.7037037,23.037037 C14.5925926,23.037037 17.1851852,22 19.1851852,20.2222222 C19.1851852,20.2222222 19.1851852,20.2222222 19.1851852,20.2222222 C18.2962963,20.8148148 15.7777778,22.1481481 11.7777778,22.1481481 C8.22222222,22.1481481 6,21.3333333 4.74074074,20.6666667 C4.74074074,20.6666667 4.74074074,20.6666667 4.74074074,20.6666667 M12.4444444,21.2592593 C15.2592593,21.2592593 18.2962963,20.5185185 20.0740741,18.962963 C20.5925926,18.5185185 21.037037,18 21.4814815,17.2592593 C21.7037037,16.8148148 22,16.3703704 22.1481481,15.8518519 C22.1481481,15.8518519 22.1481481,15.8518519 22.1481481,15.8518519 C20.4444444,18.3703704 15.5555556,19.9259259 10.4444444,19.9259259 C6.88888889,19.9259259 2.96296296,18.7407407 1.48148148,16.5925926 C1.48148148,16.5925926 1.48148148,16.5925926 1.48148148,16.5925926 C2.88888889,19.6296296 7.18518519,21.2592593 12.4444444,21.2592593 M9.40740741,16.2962963 C3.62962963,16.2962963 0.888888889,13.6296296 0.37037037,11.7777778 C0.37037037,11.7777778 0.37037037,11.7777778 0.37037037,11.7777778 C0.37037037,12.3703704 0.444444444,13.1851852 0.518518519,13.7037037 C0.592592593,13.9259259 0.814814815,14.3703704 1.11111111,14.6666667 C2.51851852,16.1481481 6,18.1481481 12.0740741,18.1481481 C20.2962963,18.1481481 22.2222222,15.4074074 22.5925926,14.5185185 C22.8888889,13.8518519 23.037037,12.7407407 23.037037,11.7037037 C23.037037,11.4814815 23.037037,11.2592593 23.037037,11.1111111 C23.037037,11.1111111 23.037037,11.1111111 23.037037,11.1111111 C22.5185185,13.3333333 15.4814815,16.2962963 9.40740741,16.2962963 M1.48148148,6.88888889 C1.18518519,7.55555556 0.814814815,8.66666667 0.666666667,9.25925926 C0.592592593,9.48148148 0.666666667,9.62962963 0.740740741,9.77777778 C1.40740741,11.2592593 4.96296296,13.6296296 13.1111111,13.6296296 C18.0740741,13.6296296 22,12.3703704 22.5925926,10.1481481 C22.7407407,9.7037037 22.7407407,9.33333333 22.5925926,8.74074074 C22.4444444,8.07407407 22.1481481,7.33333333 21.8518519,6.81481481 C21.8518519,6.81481481 21.8518519,6.81481481 21.8518519,6.81481481 C21.9259259,9.77777778 13.7777778,11.6296296 9.62962963,11.6296296 C5.18518519,11.6296296 1.40740741,9.85185185 1.40740741,7.62962963 C1.40740741,7.33333333 1.40740741,7.11111111 1.48148148,6.88888889 C1.48148148,6.88888889 1.48148148,6.88888889 1.48148148,6.88888889 M19.1851852,3.25925926 C19.1851852,3.33333333 19.2592593,3.40740741 19.2592593,3.55555556 C19.2592593,4.81481481 15.4074074,7.03703704 9.33333333,7.03703704 C4.81481481,7.03703704 4,5.33333333 4,4.2962963 C4,3.92592593 4.14814815,3.55555556 4.44444444,3.11111111 C4.44444444,3.11111111 4.44444444,3.11111111 4.44444444,3.11111111 C3.85185185,3.62962963 3.33333333,4.14814815 2.88888889,4.74074074 C2.66666667,5.03703704 2.51851852,5.25925926 2.51851852,5.40740741 C2.51851852,7.62962963 8,9.18518519 13.1851852,9.18518519 C18.6666667,9.18518519 21.1111111,7.40740741 21.1111111,5.85185185 C21.1111111,5.25925926 20.8888889,4.96296296 20.2962963,4.2962963 C19.8518519,3.92592593 19.5555556,3.62962963 19.1851852,3.25925926 C19.1851852,3.25925926 19.1111111,3.25925926 19.1851852,3.25925926 M17.4814815,2 C15.7777778,0.962962963 13.8518519,0.37037037 11.7037037,0.37037037 C9.55555556,0.37037037 7.55555556,0.962962963 5.85185185,2 C5.33333333,2.2962963 5.03703704,2.59259259 5.03703704,2.88888889 C5.03703704,3.85185185 7.25925926,4.88888889 11.1851852,4.88888889 C15.1111111,4.88888889 18.1481481,3.77777778 18.1481481,2.66666667 C18.1481481,2.51851852 17.9259259,2.2962963 17.4814815,2" id="Shape" fill="#00B0EB"></path>
                    </g>
                </g>
            </g>
        </g>
    </g>
</svg>