<?xml version="1.0" encoding="UTF-8"?>
<svg width="82px" height="24px" viewBox="0 0 82 24" version="1.1" xmlns="http://www.w3.org/2000/svg" xmlns:xlink="http://www.w3.org/1999/xlink">
    <title>DirecTV-logo-white</title>
    <g id="Compliance---DTV-only-(no-comment-for-compliance)" stroke="none" stroke-width="1" fill="none" fill-rule="evenodd">
        <g id="dtv-21" transform="translate(-281.000000, -603.000000)" fill="#FFFFFF" fill-rule="nonzero">
            <g id="Group-24-Copy-2" transform="translate(133.000000, 476.000000)">
                <g id="Standard-Button" transform="translate(138.000000, 119.000000)">
                    <g id="DirecTV-logo-white" transform="translate(10.000000, 8.000000)">
                        <path d="M29.4454545,19.3818182 L29.1472727,18.4872727 L27.4327273,18.4872727 L27.1345455,19.3818182 L26.6872727,19.3818182 L28.1036364,15.5054545 L28.4763636,15.5054545 L29.8927273,19.3818182 L29.4454545,19.3818182 Z M28.2527273,16.1018182 L27.5072727,18.1890909 L28.9981818,18.1890909 L28.2527273,16.1018182 Z" id="Shape"></path>
                        <path d="M31.7563636,19.4563636 C31.392874,19.4834033 31.0356396,19.3507418 30.7779035,19.0930056 C30.5201673,18.8352694 30.3875058,18.4780351 30.4145455,18.1145455 L30.4145455,15.5054545 L30.8618182,15.5054545 L30.8618182,18.1145455 C30.8618182,18.6497596 31.295695,19.0836364 31.8309091,19.0836364 C32.3661232,19.0836364 32.8,18.6497596 32.8,18.1145455 L32.8,15.5054545 L33.2472727,15.5054545 L33.2472727,18.1145455 C33.1704283,18.8792347 32.5248946,19.460215 31.7563636,19.4563636 L31.7563636,19.4563636 Z" id="Path"></path>
                        <polygon id="Path" points="35.4090909 15.8781818 35.4090909 19.3818182 34.9618182 19.3818182 34.9618182 15.8781818 33.8436364 15.8781818 33.8436364 15.5054545 36.5272727 15.5054545 36.5272727 15.8781818"></polygon>
                        <polygon id="Path" points="39.5836364 19.3818182 39.5836364 17.5927273 37.72 17.5927273 37.72 19.3818182 37.2727273 19.3818182 37.2727273 15.5054545 37.72 15.5054545 37.72 17.22 39.5836364 17.22 39.5836364 15.5054545 40.0309091 15.5054545 40.0309091 19.3818182"></polygon>
                        <path d="M43.2363636,19.0090909 C42.9835992,19.2693996 42.6293254,19.4056587 42.2672727,19.3818182 C41.9087073,19.3847262 41.5623848,19.2515252 41.2981818,19.0090909 C40.9254545,18.6363636 40.9254545,18.2636364 40.9254545,17.4436364 C40.9254545,16.6236364 40.9254545,16.2509091 41.2981818,15.8781818 C41.5509463,15.6178731 41.9052201,15.481614 42.2672727,15.5054545 C42.6258381,15.5025466 42.9721607,15.6357475 43.2363636,15.8781818 C43.6090909,16.2509091 43.6090909,16.6236364 43.6090909,17.4436364 C43.6090909,18.2636364 43.6090909,18.6363636 43.2363636,19.0090909 Z M42.9381818,16.1018182 C42.7548098,15.9292494 42.5182432,15.8241087 42.2672727,15.8036364 C42.0089216,15.7905687 41.7597858,15.9012957 41.5963636,16.1018182 C41.3727273,16.3254545 41.2981818,16.6236364 41.2981818,17.4436364 C41.2981818,18.2636364 41.2981818,18.4872727 41.5963636,18.7854545 C41.7797357,18.9580233 42.0163023,19.063164 42.2672727,19.0836364 C42.5256239,19.096704 42.7747596,18.985977 42.9381818,18.7854545 C43.1618182,18.5618182 43.2363636,18.2636364 43.2363636,17.4436364 C43.2363636,16.6236364 43.1618182,16.4 42.9381818,16.1018182 Z" id="Shape"></path>
                        <path d="M46.8145455,19.3818182 L45.92,17.6672727 L44.9509091,17.6672727 L44.9509091,19.3818182 L44.5036364,19.3818182 L44.5036364,15.5054545 L45.9945455,15.5054545 C46.2994658,15.4748422 46.6020164,15.5827751 46.8187116,15.7994703 C47.0354067,16.0161654 47.1433396,16.318716 47.1127273,16.6236364 C47.1468941,17.1301459 46.7929401,17.5806329 46.2927273,17.6672727 L47.1872727,19.4563636 L46.8145455,19.4563636 L46.8145455,19.3818182 Z M45.9945455,15.8781818 L44.9509091,15.8781818 L44.9509091,17.2945455 L45.9945455,17.2945455 C46.1987366,17.3188326 46.4027887,17.2481395 46.5481913,17.1027368 C46.693594,16.9573341 46.7642872,16.753282 46.74,16.5490909 C46.8145455,16.1018182 46.4418182,15.8781818 45.9945455,15.8781818 Z" id="Shape"></path>
                        <polygon id="Path" points="48.0818182 19.3818182 48.0818182 15.5054545 48.5290909 15.5054545 48.5290909 19.3818182"></polygon>
                        <polygon id="Path" points="49.3490909 19.3818182 49.3490909 19.0090909 51.2872727 15.8781818 49.4236364 15.8781818 49.4236364 15.5054545 51.7345455 15.5054545 51.7345455 15.8781818 49.7963636 19.0090909 51.7345455 19.0090909 51.7345455 19.3818182"></polygon>
                        <polygon id="Path" points="52.6290909 19.3818182 52.6290909 15.5054545 55.0145455 15.5054545 55.0145455 15.8781818 53.0018182 15.8781818 53.0018182 17.22 54.7163636 17.22 54.7163636 17.5927273 53.0018182 17.5927273 53.0018182 19.0090909 55.0145455 19.0090909 55.0145455 19.3818182"></polygon>
                        <path d="M58.22,19.0836364 C57.955797,19.3260706 57.6094745,19.4592716 57.2509091,19.4563636 L55.9090909,19.4563636 L55.9090909,15.58 L57.2509091,15.58 C57.6094745,15.577092 57.955797,15.710293 58.22,15.9527273 C58.541782,16.4068134 58.6753522,16.9678083 58.5927273,17.5181818 C58.6486776,18.0671082 58.5173173,18.6188214 58.22,19.0836364 L58.22,19.0836364 Z M57.9218182,16.1763636 C57.7292766,15.9721777 57.4566082,15.8631103 57.1763636,15.8781818 L56.2818182,15.8781818 L56.2818182,19.0090909 L57.1018182,19.0090909 C57.3841819,19.0380688 57.6627872,18.9266267 57.8472727,18.7109091 C58.1454545,18.4127273 58.0709091,17.8163636 58.0709091,17.3690909 C58.1794333,16.9673394 58.1258958,16.5390399 57.9218182,16.1763636 L57.9218182,16.1763636 Z" id="Shape"></path>
                        <path d="M63.2145455,19.0836364 C62.9503425,19.3260706 62.6040199,19.4592716 62.2454545,19.4563636 L60.9036364,19.4563636 L60.9036364,15.58 L62.2454545,15.58 C62.6040199,15.577092 62.9503425,15.710293 63.2145455,15.9527273 C63.5363275,16.4068134 63.6698977,16.9678083 63.5872727,17.5181818 C63.6807127,18.0689622 63.5461654,18.6340607 63.2145455,19.0836364 L63.2145455,19.0836364 Z M62.9163636,16.1763636 C62.723822,15.9721777 62.4511537,15.8631103 62.1709091,15.8781818 L61.3509091,15.8781818 L61.3509091,19.0090909 L62.1709091,19.0090909 C62.4532728,19.0380688 62.7318781,18.9266267 62.9163636,18.7109091 C63.2145455,18.4127273 63.14,17.8163636 63.14,17.3690909 C63.2635498,16.9587877 63.1801596,16.5140395 62.9163636,16.1763636 L62.9163636,16.1763636 Z" id="Shape"></path>
                        <polygon id="Path" points="64.5563636 19.3818182 64.5563636 15.5054545 66.9418182 15.5054545 66.9418182 15.8781818 64.9290909 15.8781818 64.9290909 17.22 66.6436364 17.22 66.6436364 17.5927273 64.9290909 17.5927273 64.9290909 19.0090909 66.9418182 19.0090909 66.9418182 19.3818182"></polygon>
                        <path d="M70.2963636,19.3818182 L69.9981818,18.4872727 L68.2836364,18.4872727 L67.9854545,19.3818182 L67.5381818,19.3818182 L68.9545455,15.5054545 L69.3272727,15.5054545 L70.7436364,19.3818182 L70.2963636,19.3818182 Z M69.1781818,16.1018182 L68.4327273,18.1890909 L69.9236364,18.1890909 L69.1781818,16.1018182 Z" id="Shape"></path>
                        <polygon id="Path" points="71.4890909 19.3818182 71.4890909 15.5054545 71.9363636 15.5054545 71.9363636 19.0090909 73.9490909 19.0090909 73.9490909 19.3818182"></polygon>
                        <polygon id="Path" points="74.62 19.3818182 74.62 15.5054545 77.0054545 15.5054545 77.0054545 15.8781818 74.9927273 15.8781818 74.9927273 17.22 76.7072727 17.22 76.7072727 17.5927273 74.9927273 17.5927273 74.9927273 19.0090909 77.0054545 19.0090909 77.0054545 19.3818182"></polygon>
                        <path d="M80.1363636,19.3818182 L79.2418182,17.6672727 L78.2727273,17.6672727 L78.2727273,19.3818182 L77.9,19.3818182 L77.9,15.5054545 L79.3909091,15.5054545 C79.6958295,15.4748422 79.9983801,15.5827751 80.2150752,15.7994703 C80.4317703,16.0161654 80.5397032,16.318716 80.5090909,16.6236364 C80.5432577,17.1301459 80.1893037,17.5806329 79.6890909,17.6672727 L80.5836364,19.4563636 L80.1363636,19.4563636 L80.1363636,19.3818182 Z M79.3163636,15.8781818 L78.2727273,15.8781818 L78.2727273,17.2945455 L79.3163636,17.2945455 C79.5205548,17.3188326 79.7246068,17.2481395 79.8700095,17.1027368 C80.0154122,16.9573341 80.0861053,16.753282 80.0618182,16.5490909 C80.1363636,16.1018182 79.8381818,15.8781818 79.3163636,15.8781818 Z" id="Shape"></path>
                        <path d="M33.7690909,12.5981818 C33.0384879,13.2643685 32.0731271,13.612971 31.0854545,13.5672727 L27.4327273,13.5672727 L27.4327273,3.50363636 L31.0854545,3.50363636 C32.0731271,3.45793804 33.0384879,3.80654055 33.7690909,4.47272727 C34.8872727,5.59090909 34.8127273,7.00727273 34.8127273,8.49818182 C34.8127273,9.98909091 34.8872727,11.48 33.7690909,12.5981818 M32.4272727,5.88909091 C32.0382346,5.48656795 31.4956829,5.26954726 30.9363636,5.29272727 L29.4454545,5.29272727 L29.4454545,11.8527273 L30.9363636,11.8527273 C31.4956829,11.8759073 32.0382346,11.6588866 32.4272727,11.2563636 C32.8,10.8090909 32.8745455,10.0636364 32.8745455,8.57272727 C32.8745455,7.08181818 32.8,6.33636364 32.4272727,5.88909091" id="Shape"></path>
                        <rect id="Rectangle" x="36.6018182" y="3.50363636" width="1.93818182" height="10.0636364"></rect>
                        <path d="M45.92,13.5672727 L43.9818182,9.54181818 L42.5654545,9.54181818 L42.5654545,13.5672727 L40.6272727,13.5672727 L40.6272727,3.50363636 L44.5781818,3.50363636 C45.425115,3.44813796 46.2573902,3.74473909 46.8783422,4.32335343 C47.4992941,4.90196777 47.853833,5.71126152 47.8581818,6.56 C47.8970956,7.75065452 47.133461,8.81974307 45.9945455,9.16909091 L48.2309091,13.4927273 L45.92,13.4927273 L45.92,13.5672727 Z M44.3545455,5.29272727 L42.4909091,5.29272727 L42.4909091,7.97636364 L44.3545455,7.97636364 C44.7284108,8.01882723 45.1019372,7.89394865 45.3750908,7.63517159 C45.6482444,7.37639452 45.7931165,7.01015865 45.7709091,6.63454545 C45.8454545,5.81454545 45.2490909,5.29272727 44.3545455,5.29272727" id="Shape"></path>
                        <polygon id="Path" points="49.4236364 13.5672727 49.4236364 3.50363636 56.0581818 3.50363636 56.0581818 5.29272727 51.4363636 5.29272727 51.4363636 7.60363636 55.3872727 7.60363636 55.3872727 9.39272727 51.4363636 9.39272727 51.4363636 11.8527273 56.0581818 11.8527273 56.0581818 13.5672727"></polygon>
                        <path d="M60.9036364,13.6418182 C59.890267,13.6704434 58.9132304,13.2633448 58.22,12.5236364 C57.8211301,12.106824 57.5384121,11.5927914 57.4,11.0327273 C57.2587746,10.1957583 57.208785,9.34593602 57.2509091,8.49818182 C57.246878,7.65102842 57.2966753,6.80447471 57.4,5.96363636 C57.5227281,5.39757256 57.8076642,4.87950686 58.22,4.47272727 C58.921805,3.74548124 59.8930783,3.34078406 60.9036364,3.35454545 C62.799582,3.26535316 64.4352931,4.67206474 64.6309091,6.56 L62.6181818,6.56 C62.5063221,5.71142139 61.7580747,5.09330404 60.9036364,5.14363636 C60.422716,5.10897726 59.9534406,5.30220833 59.6363636,5.66545455 C59.2636364,6.11272727 59.1145455,6.56 59.1145455,8.49818182 C59.1145455,10.4363636 59.1890909,10.8836364 59.6363636,11.3309091 C59.9534406,11.6941553 60.422716,11.8873864 60.9036364,11.8527273 C61.7475833,11.8719025 62.4777055,11.2687581 62.6181818,10.4363636 L64.6309091,10.4363636 C64.4352931,12.3242989 62.799582,13.7310105 60.9036364,13.6418182" id="Path"></path>
                        <polygon id="Path" points="69.7 5.29272727 69.7 13.5672727 67.7618182 13.5672727 67.7618182 5.29272727 65.1527273 5.29272727 65.1527273 3.50363636 72.3836364 3.50363636 72.3836364 5.29272727"></polygon>
                        <polygon id="Path" points="78.1236364 13.5672727 76.6327273 13.5672727 73.3527273 3.50363636 75.3654545 3.50363636 77.3781818 10.0636364 79.3909091 3.50363636 81.4781818 3.50363636"></polygon>
                        <path d="M4.39818182,20.4254545 C6.40213211,21.9805882 8.86888823,22.820335 11.4054545,22.8109091 C14.1796615,22.8333758 16.8631606,21.8237424 18.9345455,19.9781818 L18.9345455,19.9781818 C16.687293,21.3264935 14.0993895,21.9993484 11.48,21.9163636 C9.03277259,22.0085653 6.60051286,21.4965106 4.39818182,20.4254545 L4.39818182,20.4254545 M12.1509091,21.0218182 C14.9836364,21.0218182 18.04,20.2763636 19.8290909,18.7109091 C20.3933061,18.2221669 20.8720023,17.6426925 21.2454545,16.9963636 C21.5134781,16.5465746 21.7381255,16.072319 21.9163636,15.58 L21.9163636,15.58 C20.2018182,18.1145455 15.2818182,19.68 10.1381818,19.68 C6.56,19.68 2.60909091,18.4872727 1.11818182,16.3254545 L1.11818182,16.3254545 C2.53454545,19.3818182 6.85818182,21.0218182 12.1509091,21.0218182 M9.09454545,16.0272727 C3.28,16.0272727 0.521818182,13.3436364 0,11.48 L0,11.48 C0.00972698525,12.1285148 0.0595188382,12.7758089 0.149090909,13.4181818 C0.280471755,13.7781336 0.483330189,14.1077785 0.745454545,14.3872727 C2.16181818,15.8781818 5.66545455,17.8909091 11.7781818,17.8909091 C20.0527273,17.8909091 21.9909091,15.1327273 22.3636364,14.2381818 C22.6869159,13.3297986 22.8385813,12.3692512 22.8109091,11.4054545 L22.8109091,10.8090909 L22.8109091,10.8090909 C22.2890909,13.0454545 15.2072727,16.0272727 9.09454545,16.0272727 M1.11818182,6.56 C0.789908396,7.33519192 0.515914756,8.13226433 0.298181818,8.94545455 C0.242904796,9.12172226 0.27017112,9.31353328 0.372727273,9.46727273 C1.04363636,10.9581818 4.62181818,13.3436364 12.8218182,13.3436364 C17.8163636,13.3436364 21.7672727,12.0763636 22.3636364,9.84 C22.5134081,9.37975687 22.5134081,8.88387949 22.3636364,8.42363636 C22.206795,7.74596048 21.9558762,7.09357155 21.6181818,6.48545455 L21.6181818,6.48545455 C21.6927273,9.46727273 13.4927273,11.3309091 9.31818182,11.3309091 C4.84545455,11.3309091 1.04363636,9.54181818 1.04363636,7.30545455 C1.02750421,7.05456425 1.05268787,6.80272768 1.11818182,6.56 L1.11818182,6.56 M18.9345455,2.90727273 C18.9345455,2.98181818 19.0090909,3.05636364 19.0090909,3.20545455 C19.0090909,4.47272727 15.1327273,6.70909091 9.02,6.70909091 C4.47272727,6.70909091 3.65272727,4.99454545 3.65272727,3.95090909 C3.67864169,3.5174347 3.83450031,3.10181172 4.1,2.75818182 L4.1,2.75818182 C3.52198243,3.24829881 2.99726259,3.79800531 2.53454545,4.39818182 C2.35551951,4.58666548 2.22727174,4.81751148 2.16181818,5.06909091 C2.16181818,7.30545455 7.67818182,8.87090909 12.8963636,8.87090909 C18.4127273,8.87090909 20.8727273,7.08181818 20.8727273,5.51636364 C20.8727273,4.92 20.6490909,4.62181818 20.0527273,3.95090909 C19.6054545,3.57818182 19.3072727,3.28 18.9345455,2.90727273 L18.9345455,2.90727273 M17.22,1.64 C15.4726419,0.561883726 13.4586367,-0.00616899633 11.4054545,-6.62108714e-16 C9.32888066,-0.00589188722 7.29098901,0.561622242 5.51636364,1.64 C4.99454545,1.93818182 4.69636364,2.23636364 4.69636364,2.53454545 C4.69636364,3.50363636 6.93272727,4.54727273 10.8836364,4.54727273 C14.8345455,4.54727273 17.8909091,3.42909091 17.8909091,2.31090909 C17.8909091,2.16181818 17.6672727,1.93818182 17.22,1.64" id="Shape"></path>
                    </g>
                </g>
            </g>
        </g>
    </g>
</svg>