<?xml version="1.0" encoding="utf-8"?>
<!-- Generator: Adobe Illustrator 24.2.3, SVG Export Plug-In . SVG Version: 6.00 Build 0)  -->
<svg version="1.1" id="Layer_1" xmlns="http://www.w3.org/2000/svg" xmlns:xlink="http://www.w3.org/1999/xlink" x="0px" y="0px"
	 viewBox="0 0 210 150" style="enable-background:new 0 0 210 150;" xml:space="preserve">
<style type="text/css">
	.st0{opacity:0.3;fill:url(#SVGID_1_);enable-background:new    ;}
	.st1{fill:none;}
	.st2{opacity:0.3;enable-background:new    ;}
	.st3{fill:url(#XMLID_2_);}
	.st4{fill:url(#XMLID_3_);}
	.st5{fill:url(#XMLID_4_);}
	.st6{fill:url(#XMLID_5_);}
	.st7{fill:url(#XMLID_6_);}
	.st8{fill:url(#XMLID_7_);}
	.st9{fill:url(#XMLID_8_);}
	.st10{fill:url(#XMLID_9_);}
	.st11{fill:#0BBDD0;}
	.st12{fill:#0079B1;}
	.st13{fill:#FFFFFF;}
	.st14{fill:#B3DAFF;}
</style>
<g>
	
		<linearGradient id="SVGID_1_" gradientUnits="userSpaceOnUse" x1="-674.9595" y1="527.9528" x2="-560.3866" y2="527.9528" gradientTransform="matrix(0.6299 0.7767 0.7767 -0.6299 53.5993 872.6401)">
		<stop  offset="0" style="stop-color:#F1D6FF"/>
		<stop  offset="0.997" style="stop-color:#D88AFF"/>
	</linearGradient>
	<path class="st0" d="M98.5,94.2c-2.5-16.6,21.3-21,28.3-34c8.1-15.2,4.2-34.6-9.1-45.5c-14-11.4-32.3-10.2-46.2-0.2
		c-10.1,7.2-10,12.1-22.5,13.7c-8.6,1-14.7-4.2-23.9-0.2C9,34.9,5.1,55.1,15.3,68.8c3.9,5.1,12.1,6.6,15.5,11.8
		c5.8,8.9,1.5,17,4.3,26.6C46.2,144.8,104.6,134.5,98.5,94.2z"/>
	<rect class="st1" width="210" height="150"/>
	<g class="st2">
		<linearGradient id="XMLID_2_" gradientUnits="userSpaceOnUse" x1="189.5458" y1="113.4465" x2="118.4193" y2="78.3392">
			<stop  offset="0" style="stop-color:#D88AFF"/>
			<stop  offset="0.997" style="stop-color:#AF29BB"/>
		</linearGradient>
		<path id="XMLID_692_" class="st3" d="M178.6,109.3H191c0.5,0,1,0.4,1,1v1.6c0,0.5-0.4,1-1,1h-12.4c-0.5,0-1-0.4-1-1v-1.6
			C177.6,109.8,178.1,109.3,178.6,109.3z"/>
		<linearGradient id="XMLID_3_" gradientUnits="userSpaceOnUse" x1="192.4048" y1="107.6543" x2="121.2783" y2="72.547">
			<stop  offset="0" style="stop-color:#D88AFF"/>
			<stop  offset="0.997" style="stop-color:#AF29BB"/>
		</linearGradient>
		<path id="XMLID_1488_" class="st4" d="M196.8,109.3h5.2c0.5,0,1,0.4,1,1v1.6c0,0.5-0.4,1-1,1h-5.2c-0.5,0-1-0.4-1-1v-1.6
			C195.8,109.8,196.3,109.3,196.8,109.3z"/>
		<linearGradient id="XMLID_4_" gradientUnits="userSpaceOnUse" x1="195.5117" y1="101.3596" x2="124.3853" y2="66.2523">
			<stop  offset="0" style="stop-color:#D88AFF"/>
			<stop  offset="0.997" style="stop-color:#AF29BB"/>
		</linearGradient>
		<path id="XMLID_1538_" class="st5" d="M187.6,97.9h8.9c0.5,0,1,0.4,1,1v1.6c0,0.5-0.4,1-1,1h-8.9c-0.5,0-1-0.4-1-1v-1.6
			C186.7,98.3,187.1,97.9,187.6,97.9z"/>
		<linearGradient id="XMLID_5_" gradientUnits="userSpaceOnUse" x1="199.4654" y1="93.3496" x2="128.3389" y2="58.2423">
			<stop  offset="0" style="stop-color:#D88AFF"/>
			<stop  offset="0.997" style="stop-color:#AF29BB"/>
		</linearGradient>
		<path id="XMLID_1529_" class="st6" d="M184.7,85.7h5.8c0.5,0,1,0.4,1,1v1.6c0,0.5-0.4,1-1,1h-5.8c-0.5,0-1-0.4-1-1v-1.6
			C183.7,86.1,184.1,85.7,184.7,85.7z"/>
		<linearGradient id="XMLID_6_" gradientUnits="userSpaceOnUse" x1="185.3436" y1="121.96" x2="114.2171" y2="86.8527">
			<stop  offset="0" style="stop-color:#D88AFF"/>
			<stop  offset="0.997" style="stop-color:#AF29BB"/>
		</linearGradient>
		<path id="XMLID_1528_" class="st7" d="M192.8,120.8h-12.4c-0.5,0-1,0.4-1,1v1.6c0,0.5,0.4,1,1,1h12.4c0.5,0,1-0.4,1-1v-1.6
			C193.8,121.2,193.3,120.8,192.8,120.8z"/>
		<linearGradient id="XMLID_7_" gradientUnits="userSpaceOnUse" x1="173.9843" y1="144.9736" x2="102.8578" y2="109.8663">
			<stop  offset="0" style="stop-color:#D88AFF"/>
			<stop  offset="0.997" style="stop-color:#AF29BB"/>
		</linearGradient>
		<path id="XMLID_1539_" class="st8" d="M159.5,133h-12.4c-0.5,0-1,0.4-1,1v1.6c0,0.5,0.4,1,1,1h12.4c0.5,0,1-0.4,1-1V134
			C160.5,133.4,160,133,159.5,133z"/>
		<linearGradient id="XMLID_8_" gradientUnits="userSpaceOnUse" x1="182.4846" y1="127.7522" x2="111.3581" y2="92.6449">
			<stop  offset="0" style="stop-color:#D88AFF"/>
			<stop  offset="0.997" style="stop-color:#AF29BB"/>
		</linearGradient>
		<path id="XMLID_1493_" class="st9" d="M174.6,120.8h-5.2c-0.5,0-1,0.4-1,1v1.6c0,0.5,0.4,1,1,1h5.2c0.5,0,1-0.4,1-1v-1.6
			C175.6,121.2,175.1,120.8,174.6,120.8z"/>
		<linearGradient id="XMLID_9_" gradientUnits="userSpaceOnUse" x1="181.7836" y1="129.1725" x2="110.6571" y2="94.0652">
			<stop  offset="0" style="stop-color:#D88AFF"/>
			<stop  offset="0.997" style="stop-color:#AF29BB"/>
		</linearGradient>
		<path id="XMLID_1542_" class="st10" d="M110,136.5h26.9c0.9,0,1.8,0,2.7-0.1c2.7-0.2,2.5-4.2-0.2-4.2h-6.1c-2.2,0-3.9-1.8-3.9-3.9
			l0,0c0-2.2,1.8-3.9,3.9-3.9h31.3c0.5,0,0.9-0.2,1.3-0.6l0,0c1-1.1,0.2-3-1.3-3h-9.9c-2.2,0-4-1.7-4.1-3.8
			c-0.1-2.2,1.7-4.1,3.9-4.1h17.4c0.6,0,1.2-0.3,1.5-0.8c0.8-1.2-0.1-2.8-1.5-2.8h-23.8c-2.2,0-4-1.7-4.1-3.8
			c-0.1-2.2,1.7-4.1,3.9-4.1h30c0.6,0,1.2-0.3,1.5-0.8c0.8-1.2-0.1-2.8-1.5-2.8h-11.9c-2.2,0-4-1.7-4.1-3.8
			c-0.1-2.2,1.7-4.1,3.9-4.1h13.9c1.2,0,2.2-1,2.2-2.2l0,0c0-1.2-1-2.2-2.2-2.2h-70V136.5z"/>
	</g>
	<g>
		<g>
			<path class="st11" d="M102.8,15.8L51.3,35.6v54.6c0,0.5,0,1.1,0,1.6c0,28.5,51.5,51.5,51.5,51.5s51.5-23.1,51.5-51.5V35.6
				L102.8,15.8z M147.5,91.8c0,11.8-12.4,23.3-22.8,30.8c-8.7,6.3-17.6,11-22,13.2c-4.4-2.2-13.2-6.8-22-13.2
				c-10.4-7.6-22.8-19-22.8-30.8c0-0.4,0-0.9,0-1.4l0-0.1v-0.1v-50L102.8,23l44.8,17.2V91.8z"/>
			<path class="st11" d="M60.7,90.3l0,0.2c0,0.5,0,1,0,1.4c0,10.7,11.8,21.5,21.7,28.7c7.8,5.7,15.8,10,20.4,12.4
				c4.7-2.4,12.6-6.7,20.4-12.4c9.9-7.2,21.7-18,21.7-28.7V42l-42.1-16.2L60.7,42V90.3z"/>
		</g>
		<path class="st12" d="M102.8,28.7l0,101.2c0,0-11.8-6.4-18.8-11.5c-13.3-9.7-20.6-19.1-20.6-26.5c0-0.4,0-0.8,0-1.3l0-0.1l0-0.1
			v-0.1v-0.1V43.8L102.8,28.7 M102.8,23L58,40.2v50v0.1l0,0.1c0,0.6,0,1,0,1.4c0,11.8,12.4,23.3,22.8,30.8c8.7,6.3,17.6,11,22,13.2
			c4.4-2.2,13.2-6.8,22-13.2c10.4-7.6,22.8-19,22.8-30.8V40.2L102.8,23L102.8,23z"/>
		<path class="st13" d="M106,70.7v2.9h-6.8v-2.9c0-1.9,1.5-3.4,3.4-3.4C104.4,67.3,106,68.9,106,70.7z M128.4,77.5
			c0,14.2-11.5,25.7-25.7,25.7c-14.2,0-25.7-11.5-25.7-25.7c0-14.2,11.5-25.7,25.7-25.7C116.9,51.9,128.4,63.4,128.4,77.5z
			 M113.6,77.2c0-1.8-1.4-3.4-3.2-3.6v-3c0-4.3-3.5-7.8-7.8-7.8c-4.3,0-7.8,3.5-7.8,7.8v3c-1.6,0.3-2.8,1.8-2.8,3.5v8.4
			c0,2,1.6,3.6,3.6,3.6H110c2,0,3.6-1.6,3.6-3.6V77.2z"/>
		<g>
			<path class="st14" d="M110.4,70.7v3c1.8,0.2,3.2,1.7,3.2,3.6v8.4c0,2-1.6,3.6-3.6,3.6h-7.2v14c14.2,0,25.7-11.5,25.7-25.7
				c0-14.2-11.5-25.7-25.7-25.7v11.1C107,63,110.4,66.5,110.4,70.7z"/>
			<path class="st14" d="M106,70.7c0-1.8-1.4-3.3-3.2-3.4v6.3h3.2V70.7z"/>
		</g>
	</g>
</g>
</svg>
